<mxfile host="app.diagrams.net" modified="2022-09-15T02:22:41.650Z" agent="5.0 (Windows)" etag="ksuElQDeHzfSE-mUqktV" version="20.3.0" type="github">
  <diagram id="SjjF-zDhys-wM8P-XWqg" name="Page-1">
    <mxGraphModel dx="1422" dy="819" grid="1" gridSize="10" guides="1" tooltips="1" connect="1" arrows="1" fold="1" page="1" pageScale="1" pageWidth="850" pageHeight="1100" math="0" shadow="0">
      <root>
        <mxCell id="0" />
        <mxCell id="1" parent="0" />
        <mxCell id="fCTABnRA20fhve25s6MW-1" value="&lt;div&gt;LocalPlayer&lt;/div&gt;&lt;div&gt;&lt;br&gt;&lt;/div&gt;" style="shape=umlActor;verticalLabelPosition=bottom;verticalAlign=top;html=1;outlineConnect=0;" vertex="1" parent="1">
          <mxGeometry x="100" y="20" width="30" height="60" as="geometry" />
        </mxCell>
        <mxCell id="fCTABnRA20fhve25s6MW-2" value="&lt;div&gt;OnlinePlayer&lt;/div&gt;&lt;div&gt;&lt;br&gt;&lt;/div&gt;" style="shape=umlActor;verticalLabelPosition=bottom;verticalAlign=top;html=1;outlineConnect=0;" vertex="1" parent="1">
          <mxGeometry x="760" y="160" width="30" height="60" as="geometry" />
        </mxCell>
        <mxCell id="fCTABnRA20fhve25s6MW-3" value="" style="edgeStyle=orthogonalEdgeStyle;rounded=0;orthogonalLoop=1;jettySize=auto;html=1;" edge="1" parent="1" source="fCTABnRA20fhve25s6MW-1" target="fCTABnRA20fhve25s6MW-6">
          <mxGeometry relative="1" as="geometry">
            <mxPoint x="115" y="180" as="sourcePoint" />
          </mxGeometry>
        </mxCell>
        <mxCell id="fCTABnRA20fhve25s6MW-19" value="" style="edgeStyle=orthogonalEdgeStyle;rounded=0;orthogonalLoop=1;jettySize=auto;html=1;" edge="1" parent="1" source="fCTABnRA20fhve25s6MW-6" target="fCTABnRA20fhve25s6MW-18">
          <mxGeometry relative="1" as="geometry" />
        </mxCell>
        <mxCell id="fCTABnRA20fhve25s6MW-6" value="&lt;div&gt;CharacterView&lt;br&gt;&lt;/div&gt;" style="whiteSpace=wrap;html=1;rounded=0;shadow=1;" vertex="1" parent="1">
          <mxGeometry x="20" y="240" width="190" height="60" as="geometry" />
        </mxCell>
        <mxCell id="fCTABnRA20fhve25s6MW-7" style="edgeStyle=orthogonalEdgeStyle;rounded=0;orthogonalLoop=1;jettySize=auto;html=1;dashed=1;" edge="1" parent="1" source="fCTABnRA20fhve25s6MW-10" target="fCTABnRA20fhve25s6MW-12">
          <mxGeometry relative="1" as="geometry">
            <Array as="points">
              <mxPoint x="620" y="280" />
              <mxPoint x="620" y="390" />
            </Array>
          </mxGeometry>
        </mxCell>
        <mxCell id="fCTABnRA20fhve25s6MW-8" style="edgeStyle=orthogonalEdgeStyle;rounded=0;orthogonalLoop=1;jettySize=auto;html=1;entryX=0;entryY=0.3333333333333333;entryDx=0;entryDy=0;entryPerimeter=0;dashed=1;" edge="1" parent="1" source="fCTABnRA20fhve25s6MW-10" target="fCTABnRA20fhve25s6MW-11">
          <mxGeometry relative="1" as="geometry" />
        </mxCell>
        <mxCell id="fCTABnRA20fhve25s6MW-9" style="edgeStyle=orthogonalEdgeStyle;rounded=0;orthogonalLoop=1;jettySize=auto;html=1;entryX=0;entryY=0.3333333333333333;entryDx=0;entryDy=0;entryPerimeter=0;dashed=1;" edge="1" parent="1" source="fCTABnRA20fhve25s6MW-10" target="fCTABnRA20fhve25s6MW-2">
          <mxGeometry relative="1" as="geometry">
            <Array as="points">
              <mxPoint x="620" y="280" />
              <mxPoint x="620" y="180" />
            </Array>
          </mxGeometry>
        </mxCell>
        <mxCell id="fCTABnRA20fhve25s6MW-10" value="Server" style="shape=cube;whiteSpace=wrap;html=1;boundedLbl=1;backgroundOutline=1;darkOpacity=0.05;darkOpacity2=0.1;shadow=1;gradientColor=none;" vertex="1" parent="1">
          <mxGeometry x="350" y="240" width="120" height="80" as="geometry" />
        </mxCell>
        <mxCell id="fCTABnRA20fhve25s6MW-11" value="&lt;div&gt;OnlinePlayer&lt;/div&gt;&lt;div&gt;&lt;br&gt;&lt;/div&gt;" style="shape=umlActor;verticalLabelPosition=bottom;verticalAlign=top;html=1;outlineConnect=0;" vertex="1" parent="1">
          <mxGeometry x="760" y="260" width="30" height="60" as="geometry" />
        </mxCell>
        <mxCell id="fCTABnRA20fhve25s6MW-12" value="&lt;div&gt;OnlinePlayer&lt;/div&gt;&lt;div&gt;&lt;br&gt;&lt;/div&gt;" style="shape=umlActor;verticalLabelPosition=bottom;verticalAlign=top;html=1;outlineConnect=0;" vertex="1" parent="1">
          <mxGeometry x="760" y="360" width="30" height="60" as="geometry" />
        </mxCell>
        <mxCell id="fCTABnRA20fhve25s6MW-13" value="Spread information" style="text;html=1;align=center;verticalAlign=middle;resizable=0;points=[];autosize=1;strokeColor=none;fillColor=none;" vertex="1" parent="1">
          <mxGeometry x="480" y="255" width="130" height="30" as="geometry" />
        </mxCell>
        <mxCell id="fCTABnRA20fhve25s6MW-15" value="Instantiate a character" style="text;html=1;align=center;verticalAlign=middle;resizable=0;points=[];autosize=1;strokeColor=none;fillColor=none;" vertex="1" parent="1">
          <mxGeometry x="120" y="150" width="140" height="30" as="geometry" />
        </mxCell>
        <mxCell id="fCTABnRA20fhve25s6MW-21" value="" style="edgeStyle=orthogonalEdgeStyle;rounded=0;orthogonalLoop=1;jettySize=auto;html=1;" edge="1" parent="1" source="fCTABnRA20fhve25s6MW-18" target="fCTABnRA20fhve25s6MW-20">
          <mxGeometry relative="1" as="geometry" />
        </mxCell>
        <mxCell id="fCTABnRA20fhve25s6MW-18" value="Awake() =&amp;gt;photonView.IsMine" style="rhombus;whiteSpace=wrap;html=1;rounded=0;shadow=1;" vertex="1" parent="1">
          <mxGeometry x="8.75" y="370" width="212.5" height="80" as="geometry" />
        </mxCell>
        <mxCell id="fCTABnRA20fhve25s6MW-20" value="photonView.RPC(&quot;RequestFlipValue&quot;, ..." style="whiteSpace=wrap;html=1;rounded=0;shadow=1;" vertex="1" parent="1">
          <mxGeometry x="260" y="345" width="230" height="130" as="geometry" />
        </mxCell>
      </root>
    </mxGraphModel>
  </diagram>
</mxfile>
